<svg xmlns="http://www.w3.org/2000/svg" width="480" height="250" style="font-family:-apple-system,BlinkMacSystemFont,Segoe UI,Helvetica,Arial,sans-serif;font-size:13px;">
<rect width="480" height="250" rx="6" fill="#fff" stroke="#e1e4e8"/>
<text x="16" y="28" font-size="15" font-weight="600" fill="#24292e">Most used languages</text>
<rect x="16.00" y="44" width="162.88" height="8" fill="#178600"/>
<rect x="178.88" y="44" width="70.21" height="8" fill="#f34b7d"/>
<rect x="249.09" y="44" width="52.09" height="8" fill="#f1e05a"/>
<rect x="301.18" y="44" width="42.70" height="8" fill="#3572A5"/>
<rect x="343.88" y="44" width="41.80" height="8" fill="#3178c6"/>
<rect x="385.68" y="44" width="40.96" height="8" fill="#41b883"/>
<rect x="426.64" y="44" width="27.49" height="8" fill="#b07219"/>
<rect x="454.13" y="44" width="9.80" height="8" fill="#00ADD8"/>
<rect x="463.93" y="44" width="0.07" height="8" fill="#89e051"/>
<circle cx="22" cy="78" r="6" fill="#178600"/>
<text x="34" y="82" fill="#24292e" font-size="12">C#</text>
<text x="34" y="96" fill="#586069" font-size="11">36.4%</text>
<circle cx="254" cy="78" r="6" fill="#f34b7d"/>
<text x="266" y="82" fill="#24292e" font-size="12">C++</text>
<text x="266" y="96" fill="#586069" font-size="11">15.7%</text>
<circle cx="22" cy="108" r="6" fill="#f1e05a"/>
<text x="34" y="112" fill="#24292e" font-size="12">JavaScript</text>
<text x="34" y="126" fill="#586069" font-size="11">11.6%</text>
<circle cx="254" cy="108" r="6" fill="#3572A5"/>
<text x="266" y="112" fill="#24292e" font-size="12">Python</text>
<text x="266" y="126" fill="#586069" font-size="11">9.5%</text>
<circle cx="22" cy="138" r="6" fill="#3178c6"/>
<text x="34" y="142" fill="#24292e" font-size="12">TypeScript</text>
<text x="34" y="156" fill="#586069" font-size="11">9.3%</text>
<circle cx="254" cy="138" r="6" fill="#41b883"/>
<text x="266" y="142" fill="#24292e" font-size="12">Vue</text>
<text x="266" y="156" fill="#586069" font-size="11">9.1%</text>
<circle cx="22" cy="168" r="6" fill="#b07219"/>
<text x="34" y="172" fill="#24292e" font-size="12">Java</text>
<text x="34" y="186" fill="#586069" font-size="11">6.1%</text>
<circle cx="254" cy="168" r="6" fill="#00ADD8"/>
<text x="266" y="172" fill="#24292e" font-size="12">Go</text>
<text x="266" y="186" fill="#586069" font-size="11">2.2%</text>
<circle cx="22" cy="198" r="6" fill="#89e051"/>
<text x="34" y="202" fill="#24292e" font-size="12">Shell</text>
<text x="34" y="216" fill="#586069" font-size="11">0.0%</text>
</svg>