<svg xmlns="http://www.w3.org/2000/svg" width="480" height="220" style="font-family:-apple-system,BlinkMacSystemFont,Segoe UI,Helvetica,Arial,sans-serif;font-size:13px;">
<rect width="480" height="220" rx="6" fill="#fff" stroke="#e1e4e8"/>
<text x="16" y="28" font-size="15" font-weight="600" fill="#24292e">Most used languages</text>
<rect x="16.00" y="44" width="267.14" height="8" fill="#178600"/>
<rect x="283.14" y="44" width="122.36" height="8" fill="#3178c6"/>
<rect x="405.50" y="44" width="26.47" height="8" fill="#00ADD8"/>
<rect x="431.97" y="44" width="18.56" height="8" fill="#b07219"/>
<rect x="450.52" y="44" width="10.09" height="8" fill="#41b883"/>
<rect x="460.61" y="44" width="2.64" height="8" fill="#3572A5"/>
<rect x="463.26" y="44" width="0.74" height="8" fill="#f1e05a"/>
<circle cx="22" cy="78" r="6" fill="#178600"/>
<text x="34" y="82" fill="#24292e" font-size="12">C#</text>
<text x="34" y="96" fill="#586069" font-size="11">59.6%</text>
<circle cx="254" cy="78" r="6" fill="#3178c6"/>
<text x="266" y="82" fill="#24292e" font-size="12">TypeScript</text>
<text x="266" y="96" fill="#586069" font-size="11">27.3%</text>
<circle cx="22" cy="108" r="6" fill="#00ADD8"/>
<text x="34" y="112" fill="#24292e" font-size="12">Go</text>
<text x="34" y="126" fill="#586069" font-size="11">5.9%</text>
<circle cx="254" cy="108" r="6" fill="#b07219"/>
<text x="266" y="112" fill="#24292e" font-size="12">Java</text>
<text x="266" y="126" fill="#586069" font-size="11">4.1%</text>
<circle cx="22" cy="138" r="6" fill="#41b883"/>
<text x="34" y="142" fill="#24292e" font-size="12">Vue</text>
<text x="34" y="156" fill="#586069" font-size="11">2.3%</text>
<circle cx="254" cy="138" r="6" fill="#3572A5"/>
<text x="266" y="142" fill="#24292e" font-size="12">Python</text>
<text x="266" y="156" fill="#586069" font-size="11">0.6%</text>
<circle cx="22" cy="168" r="6" fill="#f1e05a"/>
<text x="34" y="172" fill="#24292e" font-size="12">JavaScript</text>
<text x="34" y="186" fill="#586069" font-size="11">0.2%</text>
</svg>