<svg xmlns="http://www.w3.org/2000/svg" width="480" height="250" style="font-family:-apple-system,BlinkMacSystemFont,Segoe UI,Helvetica,Arial,sans-serif;font-size:13px;">
<rect width="480" height="250" rx="6" fill="#fff" stroke="#e1e4e8"/>
<text x="16" y="28" font-size="15" font-weight="600" fill="#24292e">Most used languages</text>
<rect x="16.00" y="44" width="148.70" height="8" fill="#178600"/>
<rect x="164.70" y="44" width="64.10" height="8" fill="#f34b7d"/>
<rect x="228.80" y="44" width="54.11" height="8" fill="#3178c6"/>
<rect x="282.91" y="44" width="48.24" height="8" fill="#f1e05a"/>
<rect x="331.16" y="44" width="40.14" height="8" fill="#3572A5"/>
<rect x="371.30" y="44" width="37.39" height="8" fill="#41b883"/>
<rect x="408.69" y="44" width="33.13" height="8" fill="#b07219"/>
<rect x="441.82" y="44" width="18.46" height="8" fill="#00ADD8"/>
<rect x="460.29" y="44" width="3.65" height="8" fill="#ededed"/>
<rect x="463.93" y="44" width="0.07" height="8" fill="#89e051"/>
<circle cx="22" cy="78" r="6" fill="#178600"/>
<text x="34" y="82" fill="#24292e" font-size="12">C#</text>
<text x="34" y="96" fill="#586069" font-size="11">33.2%</text>
<circle cx="254" cy="78" r="6" fill="#f34b7d"/>
<text x="266" y="82" fill="#24292e" font-size="12">C++</text>
<text x="266" y="96" fill="#586069" font-size="11">14.3%</text>
<circle cx="22" cy="108" r="6" fill="#3178c6"/>
<text x="34" y="112" fill="#24292e" font-size="12">TypeScript</text>
<text x="34" y="126" fill="#586069" font-size="11">12.1%</text>
<circle cx="254" cy="108" r="6" fill="#f1e05a"/>
<text x="266" y="112" fill="#24292e" font-size="12">JavaScript</text>
<text x="266" y="126" fill="#586069" font-size="11">10.8%</text>
<circle cx="22" cy="138" r="6" fill="#3572A5"/>
<text x="34" y="142" fill="#24292e" font-size="12">Python</text>
<text x="34" y="156" fill="#586069" font-size="11">9.0%</text>
<circle cx="254" cy="138" r="6" fill="#41b883"/>
<text x="266" y="142" fill="#24292e" font-size="12">Vue</text>
<text x="266" y="156" fill="#586069" font-size="11">8.3%</text>
<circle cx="22" cy="168" r="6" fill="#b07219"/>
<text x="34" y="172" fill="#24292e" font-size="12">Java</text>
<text x="34" y="186" fill="#586069" font-size="11">7.4%</text>
<circle cx="254" cy="168" r="6" fill="#00ADD8"/>
<text x="266" y="172" fill="#24292e" font-size="12">Go</text>
<text x="266" y="186" fill="#586069" font-size="11">4.1%</text>
<circle cx="22" cy="198" r="6" fill="#ededed"/>
<text x="34" y="202" fill="#24292e" font-size="12">Svelte</text>
<text x="34" y="216" fill="#586069" font-size="11">0.8%</text>
<circle cx="254" cy="198" r="6" fill="#89e051"/>
<text x="266" y="202" fill="#24292e" font-size="12">Shell</text>
<text x="266" y="216" fill="#586069" font-size="11">0.0%</text>
</svg>